<svg data-v-423bf9ae="" xmlns="http://www.w3.org/2000/svg" viewBox="-2 5 110 85" class="iconLeft"><!----><!----><!---->
    <defs data-v-423bf9ae="">
        <linearGradient data-v-423bf9ae="" gradientTransform="rotate(25)" id="9130ee16-d070-4314-beb5-e1a357deef63"
                        x1="0%" y1="0%" x2="100%" y2="0%">
            <stop data-v-423bf9ae="" offset="0%" style="stop-color: rgb(66, 47, 117); stop-opacity: 1;"></stop>
            <stop data-v-423bf9ae="" offset="100%" style="stop-color: rgb(158, 126, 214); stop-opacity: 1;"></stop>
        </linearGradient>
    </defs>
    <g data-v-423bf9ae="" id="187f30c1-fe64-48bb-9c63-8b077b9757fe"
       transform="matrix(1.2130148856659682,0,0,1.2130148856659682,-7.071687349629833,-21.931978720983835)"
       stroke="none" fill="url(#9130ee16-d070-4314-beb5-e1a357deef63)">
        <path d="M91.886 40.31c-.092-.045-.192-.062-.288-.094-.031-.014-.063-.019-.096-.031-.094-.027-.186-.062-.281-.077-.581-.155-1.204-.124-1.765.159-1.409.712-2.649 1.072-3.688 1.072-2.056 0-3.498-1.428-5.681-3.758-2.524-2.695-5.665-6.048-11.08-6.048-3.594 0-7.769 1.548-12.68 4.681-3.606-9.377-8.222-13.621-14.727-13.621-1.834 0-3.556.319-5.22.628-1.403.26-2.729.506-3.903.506h-.002c-1.578 0-3.415-.302-5.234-3.899a2.493 2.493 0 0 0-2.416-1.362c-.614.047-1.157.335-1.572.756-.035.034-.066.069-.101.105a2.43 2.43 0 0 0-.281.395c-.024.04-.061.07-.081.112 0 0-4.604 9.186-4.639 9.293L6.279 65.512a2.274 2.274 0 0 0 .841 2.557c.305.218.708.524 1.148.859 1.385 1.054 2.427 1.832 3.22 2.249 5.505 2.896 10.581 3.183 15.06 3.435 4.534.255 8.185.461 11.312 3.241l-.099 1.175a2.273 2.273 0 0 0 1.503 2.331l3.522 1.153a2.266 2.266 0 0 0 2.592-.99l.612-.999c4.264-.344 8.083 2.06 12.544 4.894 5.261 3.34 11.223 7.126 19.498 7.236l.03.001c.979 0 1.849-.627 2.158-1.558l12.652-38.07c.073-.219.281-10.638.281-10.638a2.267 2.267 0 0 0-1.267-2.078zm-34.714 1.331c4.871-3.396 8.851-5.115 11.836-5.115 3.252 0 5.19 2.07 7.437 4.469 2.345 2.501 4.999 5.337 9.324 5.337.311 0 .624-.014.939-.044L76.443 77.512c-1.037.435-1.97.653-2.779.653h-.001c-2.053 0-3.492-1.428-5.671-3.756-2.522-2.696-5.662-6.051-11.078-6.051-2.775 0-5.893.912-9.431 2.771l9.689-29.488zM32.479 28.72c1.633-.001 3.249-.3 4.812-.59 1.51-.28 2.936-.545 4.311-.545 2.153 0 6.585.001 10.826 12.498l-9.685 29.479c-3.374-6.965-7.596-10.144-13.237-10.144-1.836 0-3.559.32-5.225.63-1.405.262-2.731.508-3.905.508-1.437 0-3.087-.251-4.745-3.02l10.257-31.242c1.823 1.627 4.006 2.426 6.591 2.426z"></path>
    </g><!---->
</svg>