<svg data-v-423bf9ae="" xmlns="http://www.w3.org/2000/svg" viewBox="0 0 327 91" class="iconLeft"><!----><!----><!----><g data-v-423bf9ae="" id="7bac3a21-0c95-47fd-b7ed-a99d7a0c07dc" fill="white" transform="matrix(5.71973320392212,0,0,5.71973320392212,117.90893809229402,-3.817922022713269)"><path d="M8.01 12.31L2.87 12.31L2.87 3.92L1.33 3.92L1.33 13.58L8.01 13.58ZM9.97 3.56C9.45 3.56 9.07 3.93 9.07 4.44C9.07 4.96 9.45 5.33 9.97 5.33C10.49 5.33 10.88 4.96 10.88 4.44C10.88 3.93 10.49 3.56 9.97 3.56ZM10.74 13.58L10.74 6.15L9.20 6.15L9.20 13.58ZM16.76 5.95C16.00 5.95 15.23 6.16 14.81 6.51L14.25 7.31L14.25 3.29L12.71 3.29L12.71 13.58L14.25 13.58L14.25 12.57L14.74 13.31C15.12 13.61 15.89 13.78 16.51 13.78C18.42 13.78 20.10 12.46 20.10 9.73C20.10 7.56 18.89 5.95 16.76 5.95ZM16.32 12.66C15.34 12.66 14.25 11.98 14.25 10.16L14.25 9.79C14.25 7.80 15.25 7.07 16.39 7.07C17.74 7.07 18.48 8.26 18.48 9.87C18.48 11.72 17.56 12.66 16.32 12.66ZM24.79 5.96C24.42 5.96 23.98 6.12 23.65 6.38L23.02 7.41L23.02 6.15L21.48 6.15L21.48 13.58L23.02 13.58L23.02 9.72C23.02 7.88 23.90 7.15 25.31 7.25L25.31 6.05C25.16 5.99 25.00 5.96 24.79 5.96ZM27.19 3.56C26.67 3.56 26.29 3.93 26.29 4.44C26.29 4.96 26.67 5.33 27.19 5.33C27.71 5.33 28.10 4.96 28.10 4.44C28.10 3.93 27.71 3.56 27.19 3.56ZM27.96 13.58L27.96 6.15L26.42 6.15L26.42 13.58ZM36.50 8.08C36.36 6.78 35.45 5.95 33.85 5.95C33.11 5.95 32.56 6.08 31.98 6.52L31.47 7.38L31.47 6.15L29.93 6.15L29.93 13.58L31.47 13.58L31.47 10.25C31.47 7.92 32.34 7.08 33.40 7.08C34.45 7.08 34.90 7.67 34.97 8.51C35 8.89 35 9.21 35 9.56L35 13.58L36.54 13.58L36.54 9.39C36.54 8.79 36.53 8.46 36.50 8.08Z"></path></g><!----><g data-v-423bf9ae="" id="2297e419-c418-427d-a65b-8b3466ac613a" transform="matrix(1.2130148856659682,0,0,1.2130148856659682,-7.071687349629833,-21.931978720983835)" stroke="none" fill="white"><path d="M91.886 40.31c-.092-.045-.192-.062-.288-.094-.031-.014-.063-.019-.096-.031-.094-.027-.186-.062-.281-.077-.581-.155-1.204-.124-1.765.159-1.409.712-2.649 1.072-3.688 1.072-2.056 0-3.498-1.428-5.681-3.758-2.524-2.695-5.665-6.048-11.08-6.048-3.594 0-7.769 1.548-12.68 4.681-3.606-9.377-8.222-13.621-14.727-13.621-1.834 0-3.556.319-5.22.628-1.403.26-2.729.506-3.903.506h-.002c-1.578 0-3.415-.302-5.234-3.899a2.493 2.493 0 0 0-2.416-1.362c-.614.047-1.157.335-1.572.756-.035.034-.066.069-.101.105a2.43 2.43 0 0 0-.281.395c-.024.04-.061.07-.081.112 0 0-4.604 9.186-4.639 9.293L6.279 65.512a2.274 2.274 0 0 0 .841 2.557c.305.218.708.524 1.148.859 1.385 1.054 2.427 1.832 3.22 2.249 5.505 2.896 10.581 3.183 15.06 3.435 4.534.255 8.185.461 11.312 3.241l-.099 1.175a2.273 2.273 0 0 0 1.503 2.331l3.522 1.153a2.266 2.266 0 0 0 2.592-.99l.612-.999c4.264-.344 8.083 2.06 12.544 4.894 5.261 3.34 11.223 7.126 19.498 7.236l.03.001c.979 0 1.849-.627 2.158-1.558l12.652-38.07c.073-.219.281-10.638.281-10.638a2.267 2.267 0 0 0-1.267-2.078zm-34.714 1.331c4.871-3.396 8.851-5.115 11.836-5.115 3.252 0 5.19 2.07 7.437 4.469 2.345 2.501 4.999 5.337 9.324 5.337.311 0 .624-.014.939-.044L76.443 77.512c-1.037.435-1.97.653-2.779.653h-.001c-2.053 0-3.492-1.428-5.671-3.756-2.522-2.696-5.662-6.051-11.078-6.051-2.775 0-5.893.912-9.431 2.771l9.689-29.488zM32.479 28.72c1.633-.001 3.249-.3 4.812-.59 1.51-.28 2.936-.545 4.311-.545 2.153 0 6.585.001 10.826 12.498l-9.685 29.479c-3.374-6.965-7.596-10.144-13.237-10.144-1.836 0-3.559.32-5.225.63-1.405.262-2.731.508-3.905.508-1.437 0-3.087-.251-4.745-3.02l10.257-31.242c1.823 1.627 4.006 2.426 6.591 2.426z"></path></g><!----></svg>