<svg data-v-423bf9ae="" xmlns="http://www.w3.org/2000/svg" viewBox="0 0 201.39180087352568 60" class="font"><!----><!----><!----><g data-v-423bf9ae="" id="5c50014f-9f92-4228-b5fa-e810a3151718" fill="black" transform="matrix(5.71973320392212,0,0,5.71973320392212,-7.607243853506759,-18.81792202271327)"><path d="M8.01 12.31L2.87 12.31L2.87 3.92L1.33 3.92L1.33 13.58L8.01 13.58ZM9.97 3.56C9.45 3.56 9.07 3.93 9.07 4.44C9.07 4.96 9.45 5.33 9.97 5.33C10.49 5.33 10.88 4.96 10.88 4.44C10.88 3.93 10.49 3.56 9.97 3.56ZM10.74 13.58L10.74 6.15L9.20 6.15L9.20 13.58ZM16.76 5.95C16.00 5.95 15.23 6.16 14.81 6.51L14.25 7.31L14.25 3.29L12.71 3.29L12.71 13.58L14.25 13.58L14.25 12.57L14.74 13.31C15.12 13.61 15.89 13.78 16.51 13.78C18.42 13.78 20.10 12.46 20.10 9.73C20.10 7.56 18.89 5.95 16.76 5.95ZM16.32 12.66C15.34 12.66 14.25 11.98 14.25 10.16L14.25 9.79C14.25 7.80 15.25 7.07 16.39 7.07C17.74 7.07 18.48 8.26 18.48 9.87C18.48 11.72 17.56 12.66 16.32 12.66ZM24.79 5.96C24.42 5.96 23.98 6.12 23.65 6.38L23.02 7.41L23.02 6.15L21.48 6.15L21.48 13.58L23.02 13.58L23.02 9.72C23.02 7.88 23.90 7.15 25.31 7.25L25.31 6.05C25.16 5.99 25.00 5.96 24.79 5.96ZM27.19 3.56C26.67 3.56 26.29 3.93 26.29 4.44C26.29 4.96 26.67 5.33 27.19 5.33C27.71 5.33 28.10 4.96 28.10 4.44C28.10 3.93 27.71 3.56 27.19 3.56ZM27.96 13.58L27.96 6.15L26.42 6.15L26.42 13.58ZM36.50 8.08C36.36 6.78 35.45 5.95 33.85 5.95C33.11 5.95 32.56 6.08 31.98 6.52L31.47 7.38L31.47 6.15L29.93 6.15L29.93 13.58L31.47 13.58L31.47 10.25C31.47 7.92 32.34 7.08 33.40 7.08C34.45 7.08 34.90 7.67 34.97 8.51C35 8.89 35 9.21 35 9.56L35 13.58L36.54 13.58L36.54 9.39C36.54 8.79 36.53 8.46 36.50 8.08Z"></path></g><!----><!----></svg>